<?xml version="1.0" encoding="utf-8"?>
<!-- Generator: Adobe Illustrator 16.0.3, SVG Export Plug-In . SVG Version: 6.00 Build 0)  -->
<!DOCTYPE svg PUBLIC "-//W3C//DTD SVG 1.1//EN" "http://www.w3.org/Graphics/SVG/1.1/DTD/svg11.dtd">
<svg version="1.1" id="Capa_1" xmlns="http://www.w3.org/2000/svg" xmlns:xlink="http://www.w3.org/1999/xlink" x="0px" y="0px"
	 width="512px" height="512px" viewBox="0 0 512 512" enable-background="new 0 0 512 512" xml:space="preserve">
<g>
	<g id="_x35_00._Down">
		<g>
			<path fill="#FFFFFF" d="M383.976,34.338C261.552-36.336,105.009,5.593,34.336,128.023
				c-70.681,122.407-28.745,278.956,93.682,349.65c122.41,70.663,278.966,28.72,349.648-93.69
				C548.354,261.554,506.386,105.004,383.976,34.338z M450.801,368.488c-62.114,107.605-199.693,144.467-307.292,82.308
				C35.931,388.692-0.953,251.123,61.157,143.518C123.283,35.903,260.876-0.951,368.474,61.168
				C476.072,123.283,512.947,260.876,450.801,368.488z M346.308,205.5l-90.309,90.891L165.693,206.5
				c-9.985-9.974-26.201-9.974-36.193,0c-9.999,9.999-9.999,26.211,0,36.207l108.402,107.981C256,370.5,256,370.5,274.097,350.694
				L382.5,241.707c9.989-9.995,9.989-26.208,0-36.207C372.517,195.513,356.294,195.513,346.308,205.5z"/>
		</g>
	</g>
</g>
</svg>
